<svg version="1.2" xmlns="http://www.w3.org/2000/svg" viewBox="0 0 512 512" width="512" height="512">
	<title>gem</title>
	<style>
		.s0 { fill: #f2cf2e;stroke: #000000;stroke-miterlimit:100;stroke-width: 22 } 
		.s1 { fill: #000000;stroke: #000000;stroke-miterlimit:10;stroke-width: 5 } 
	</style>
	<path id="Background" class="s0" d="m50.2 18.6c-9-6.1-21.1-5-28.8 2.7-7.8 7.6-8.9 19.8-2.7 28.7l105.6 154-93.9 30.6c-9.3 3-15.6 11.7-15.6 21.5 0 9.8 6.3 18.5 15.6 21.5l97.2 31.5-49.9 94.9c-4.6 8.7-3 19.5 4.1 26.5 7.1 6.9 17.7 8.6 26.5 4l94.8-49.9 31.5 97.2c3.1 9.4 11.7 15.7 21.5 15.7 9.8 0 18.5-6.3 21.5-15.7l31.5-97.2 94.9 49.9c8.7 4.6 19.5 3 26.5-4 6.9-7.1 8.6-17.8 4-26.5l-49.9-94.9 97.2-31.5c9.4-3 15.7-11.7 15.7-21.5 0-9.8-6.3-18.5-15.7-21.5l-100.4-32.6 24.3-66.3c3-8.3 0.9-17.6-5.3-23.8-6.2-6.2-15.5-8.3-23.8-5.3l-66.3 24.3-32.7-100.6c-3-9.3-11.7-15.6-21.5-15.6-9.8 0-18.4 6.3-21.5 15.6l-30.4 93.9z"/>
	<path id="gem" class="s1" d="m203 246.5v-8.3h6.2v38.1q0 10.1-1.7 14.7-2.4 6.6-8.4 10.2-6 3.5-14.4 3.5-6.1 0-11.1-1.7-4.8-1.8-7.9-4.7-3.1-2.9-5.7-8.5h6.7q2.7 4.7 7 7 4.3 2.3 10.7 2.3 6.3 0 10.6-2.3 4.3-2.4 6.2-6 1.8-3.5 1.8-11.4v-2.5q-3.4 4.4-8.4 6.8-5.1 2.3-10.7 2.3-6.6 0-12.4-3.3-5.8-3.2-8.9-8.8-3.2-5.5-3.2-12.2 0-6.6 3.3-12.3 3.3-5.8 9.1-9.1 5.8-3.3 12.3-3.3 5.4 0 10 2.2 4.6 2.2 8.9 7.3zm-18.1-3.6q-5.2 0-9.7 2.5-4.5 2.5-7.1 7-2.5 4.5-2.5 9.6 0 7.9 5.3 13.1 5.2 5.1 13.6 5.1 8.5 0 13.7-5.1 5.1-5.1 5.1-13.4 0-5.4-2.3-9.6-2.4-4.3-6.8-6.7-4.3-2.5-9.3-2.5zm77.8 27.2l5.2 2.8q-2.6 5-5.9 8-3.4 3.1-7.6 4.7-4.1 1.6-9.4 1.6-11.7 0-18.3-7.6-6.6-7.7-6.6-17.4 0-9.1 5.6-16.2 7.1-9 18.9-9 12.3 0 19.6 9.2 5.1 6.6 5.2 16.4h-42.9q0.1 8.3 5.3 13.7 5.1 5.3 12.7 5.3 3.6 0 7-1.3 3.5-1.2 5.9-3.4 2.5-2.1 5.3-6.8zm-35.6-12.8h35.6q-1.3-5-3.6-7.9-2.4-3-6.2-4.8-3.9-1.8-8.2-1.8-7 0-12 4.6-3.7 3.3-5.6 9.9zm53.8 28.7v-47.8h6.1v8.2q3.2-4.5 6.6-6.6 4.6-2.8 9.8-2.8 3.4 0 6.6 1.3 3.1 1.4 5 3.7 2 2.2 3.5 6.4 3.1-5.6 7.7-8.5 4.6-2.9 9.9-2.9 5 0 8.7 2.5 3.9 2.5 5.7 6.9 1.9 4.5 1.9 13.5v26.1h-6.3v-26.1q0-7.7-1.1-10.6-1.1-2.9-3.8-4.6-2.6-1.8-6.3-1.8-4.5 0-8.2 2.7-3.7 2.6-5.5 7-1.7 4.4-1.7 14.7v18.7h-6.1v-24.5q0-8.6-1.1-11.7-1-3.1-3.7-5-2.7-1.9-6.4-1.9-4.2 0-8 2.6-3.7 2.6-5.5 6.9-1.7 4.4-1.7 13.3v20.3z"/>
</svg>